<svg width="407" height="407" viewBox="0 0 407 407" fill="none" xmlns="http://www.w3.org/2000/svg">
<path d="M201.58 391.642C310.789 391.642 399.321 304.829 399.321 197.741C399.321 90.652 310.789 3.83963 201.58 3.83963C92.3711 3.83963 3.8396 90.652 3.8396 197.741C3.8396 304.829 92.3711 391.642 201.58 391.642Z" fill="#FF7241"/>
<path fill-rule="evenodd" clip-rule="evenodd" d="M216.243 64.7453L201.772 49.9151L187.302 64.7453C174.39 77.9779 168.231 95.4797 168.828 112.785C158.052 105.758 144.691 103.213 131.241 107.164L115.189 111.881L119.327 128.817C124.179 148.669 139.357 163.332 157.483 166.85C143.192 179.171 134.154 197.352 134.154 217.63V272.769C134.154 309.884 164.428 339.97 201.772 339.97C239.116 339.97 269.39 309.884 269.39 272.769V217.63C269.39 197.352 260.352 179.171 246.062 166.85C264.188 163.332 279.366 148.669 284.217 128.817L288.356 111.881L272.304 107.164C258.853 103.213 245.491 105.758 234.717 112.785C235.312 95.4797 229.154 77.9778 216.243 64.7453ZM199.778 76.7159L201.772 74.6717L203.767 76.7159C221.939 95.34 221.939 125.65 203.767 144.273C202.676 145.391 200.868 145.391 199.778 144.273C181.604 125.65 181.604 95.34 199.778 76.7159ZM201.772 167.66C189.575 167.66 178.393 171.976 169.687 179.155C168.158 180.416 168.523 182.777 170.297 183.662L247.873 222.344C249.792 223.301 252.051 221.912 252.051 219.776V217.63C252.051 190.033 229.541 167.66 201.772 167.66ZM153.557 213.258C152.48 212.723 151.842 211.579 152.016 210.394C152.612 206.309 153.706 202.383 155.234 198.68C155.846 197.196 157.609 196.603 159.049 197.322L250.458 242.902C251.435 243.388 252.051 244.382 252.051 245.469V257.579C252.051 259.714 249.795 261.102 247.875 260.148L153.557 213.258ZM155.668 233.533C153.75 232.579 151.492 233.968 151.492 236.103V248.2C151.492 249.288 152.109 250.282 153.086 250.768L243.3 295.735C244.683 296.424 246.374 295.91 247.049 294.525C248.785 290.963 250.108 287.164 250.956 283.191C251.22 281.956 250.581 280.719 249.446 280.154L155.668 233.533ZM151.492 272.769C151.492 271.171 153.183 270.133 154.618 270.849L230.65 308.746C232.494 309.665 232.794 312.15 231.12 313.349C222.861 319.258 212.726 322.739 201.772 322.739C174.003 322.739 151.492 300.367 151.492 272.769ZM173.814 148.254C169.152 129.177 151.873 119.144 136.118 123.773L135.924 123.83L136.138 124.707C140.799 143.784 158.079 153.817 173.834 149.188L174.028 149.131L173.814 148.254ZM267.427 123.773C251.672 119.144 234.392 129.177 229.731 148.254L229.516 149.131L229.71 149.188C245.465 153.817 262.744 143.784 267.407 124.707L267.621 123.83L267.427 123.773Z" fill="#FFF9F0"/>
</svg>
