<svg width="394" height="394" viewBox="0 0 394 394" fill="none" xmlns="http://www.w3.org/2000/svg">
<path d="M195.142 379.132C300.862 379.132 386.566 295.093 386.566 191.425C386.566 87.7565 300.862 3.71698 195.142 3.71698C89.4207 3.71698 3.71704 87.7565 3.71704 191.425C3.71704 295.093 89.4207 379.132 195.142 379.132Z" fill="#FF7241"/>
<path fill-rule="evenodd" clip-rule="evenodd" d="M208.827 65.3565L194.818 51L180.809 65.3565C168.31 78.1665 162.348 95.1092 162.926 111.862C152.495 105.059 139.56 102.595 126.539 106.421L111 110.987L115.006 127.382C119.703 146.6 134.396 160.795 151.943 164.2C138.109 176.128 129.359 193.728 129.359 213.358V266.736C129.359 302.665 158.667 331.791 194.818 331.791C230.969 331.791 260.276 302.665 260.276 266.736V213.358C260.276 193.728 251.527 176.128 237.693 164.2C255.24 160.795 269.933 146.6 274.629 127.382L278.636 110.987L263.097 106.421C250.076 102.595 237.14 105.059 226.71 111.862C227.287 95.1092 221.325 78.1664 208.827 65.3565ZM192.887 76.9447L194.818 74.9658L196.749 76.9447C214.341 94.974 214.341 124.316 196.749 142.344C195.693 143.427 193.942 143.427 192.887 142.344C175.294 124.316 175.294 94.974 192.887 76.9447ZM194.818 164.984C183.01 164.984 172.185 169.162 163.758 176.112C162.278 177.333 162.63 179.618 164.348 180.474L239.446 217.921C241.304 218.847 243.491 217.503 243.491 215.435V213.358C243.491 186.642 221.699 164.984 194.818 164.984ZM148.142 209.126C147.1 208.608 146.483 207.5 146.651 206.353C147.228 202.398 148.287 198.598 149.766 195.013C150.359 193.576 152.065 193.003 153.459 193.698L241.949 237.823C242.895 238.293 243.491 239.256 243.491 240.307V252.031C243.491 254.097 241.307 255.442 239.449 254.518L148.142 209.126ZM150.186 228.753C148.329 227.83 146.144 229.174 146.144 231.241V242.952C146.144 244.005 146.741 244.967 147.687 245.438L235.019 288.968C236.358 289.635 237.995 289.138 238.649 287.797C240.329 284.348 241.61 280.671 242.431 276.825C242.687 275.629 242.067 274.432 240.969 273.885L150.186 228.753ZM146.144 266.736C146.144 265.189 147.78 264.184 149.17 264.877L222.773 301.563C224.558 302.453 224.849 304.859 223.229 306.019C215.233 311.74 205.422 315.11 194.818 315.11C167.936 315.11 146.144 293.453 146.144 266.736ZM167.752 146.197C163.24 127.73 146.512 118.017 131.261 122.499L131.073 122.554L131.28 123.403C135.793 141.871 152.52 151.583 167.772 147.102L167.96 147.047L167.752 146.197ZM258.375 122.499C243.124 118.017 226.396 127.73 221.883 146.197L221.676 147.047L221.863 147.102C237.115 151.583 253.842 141.871 258.356 123.403L258.563 122.554L258.375 122.499Z" fill="black"/>
</svg>
