<svg width="121" height="32" viewBox="0 0 121 32" fill="none" xmlns="http://www.w3.org/2000/svg">
<path d="M16 32C24.8366 32 32 24.8366 32 16C32 7.16344 24.8366 0 16 0C7.16344 0 0 7.16344 0 16C0 24.8366 7.16344 32 16 32Z" fill="#FF7241"/>
<path fill-rule="evenodd" clip-rule="evenodd" d="M17.146 4.71735L16 3.54285L14.854 4.71735C13.8314 5.76532 13.3437 7.15141 13.3908 8.52191C12.5375 7.96541 11.4793 7.76382 10.4141 8.07681L9.14282 8.45031L9.47059 9.79164C9.85478 11.3639 11.0568 12.5251 12.4924 12.8037C11.3606 13.7795 10.6449 15.2194 10.6449 16.8254V21.1922C10.6449 24.1314 13.0424 26.5142 16 26.5142C18.9575 26.5142 21.3551 24.1314 21.3551 21.1922V16.8254C21.3551 15.2194 20.6394 13.7795 19.5076 12.8037C20.943 12.5251 22.1451 11.3639 22.5294 9.79164L22.857 8.45031L21.5858 8.07681C20.5206 7.76382 19.4624 7.96541 18.6091 8.52191C18.6562 7.15141 18.1686 5.76532 17.146 4.71735ZM15.842 5.66537L16 5.50348L16.158 5.66537C17.5972 7.14034 17.5972 9.54076 16.158 11.0157C16.0715 11.1043 15.9283 11.1043 15.842 11.0157C14.4028 9.54076 14.4028 7.14034 15.842 5.66537ZM16 12.8679C15.034 12.8679 14.1484 13.2097 13.4589 13.7783C13.3379 13.8781 13.3667 14.065 13.5072 14.1352L19.6511 17.1987C19.803 17.2744 19.9819 17.1644 19.9819 16.9952V16.8254C19.9819 14.6396 18.1991 12.8679 16 12.8679ZM12.1814 16.479C12.0962 16.4367 12.0457 16.346 12.0594 16.2523C12.1066 15.9287 12.1933 15.6178 12.3143 15.3245C12.3628 15.207 12.5023 15.16 12.6165 15.2169L19.8557 18.8267C19.9331 18.8653 19.9819 18.944 19.9819 19.0301V19.9891C19.9819 20.1581 19.8032 20.2682 19.6512 20.1926L12.1814 16.479ZM12.3487 18.0849C12.1967 18.0093 12.018 18.1192 12.018 18.2883V19.2464C12.018 19.3326 12.0668 19.4112 12.1442 19.4498L19.2888 23.011C19.3984 23.0656 19.5323 23.0249 19.5858 22.9153C19.7233 22.6331 19.828 22.3322 19.8952 22.0175C19.9161 21.9197 19.8654 21.8217 19.7756 21.777L12.3487 18.0849ZM12.018 21.1922C12.018 21.0656 12.1519 20.9833 12.2656 21.0401L18.287 24.0414C18.433 24.1141 18.4568 24.311 18.3242 24.4058C17.6701 24.8739 16.8674 25.1496 16 25.1496C13.8008 25.1496 12.018 23.3778 12.018 21.1922ZM13.7857 11.3309C13.4165 9.8201 12.0481 9.02554 10.8003 9.39214L10.785 9.39666L10.802 9.46614C11.1711 10.977 12.5396 11.7715 13.7874 11.4049L13.8027 11.4004L13.7857 11.3309ZM21.1996 9.39214C19.9518 9.02554 18.5834 9.8201 18.2142 11.3309L18.1972 11.4004L18.2125 11.4049C19.4603 11.7715 20.8288 10.977 21.1979 9.46614L21.2149 9.39666L21.1996 9.39214Z" fill="white"/>
<path d="M39.8027 23.1538V7.91394H49.8565V11.1182H43.2447C43.2447 11.9974 43.2447 12.8767 43.2447 13.7559H49.4676V17.136H43.2447C43.2447 18.0738 43.2447 19.0117 43.2447 19.9495H50.051V23.1538H39.8027Z" fill="black"/>
<path d="M52.0439 23.1733L56.6915 15.612V15.5534L52.0633 7.91394H56.1277C57.061 9.51609 57.975 11.1378 58.9084 12.7399H58.9473L61.7671 7.91394H65.8313C64.2561 10.4539 62.7004 13.0134 61.1253 15.5534V15.612L65.7146 23.1733H61.5337C60.6586 21.6103 59.803 20.0277 58.9279 18.4647H58.889C57.9944 20.0277 57.1193 21.6103 56.2249 23.1733H52.0439Z" fill="black"/>
<path d="M74.4686 23.4859C70.2293 23.4859 66.7678 20.2817 66.7678 15.5534C66.7678 10.8251 70.2293 7.60132 74.4686 7.60132C78.7273 7.60132 82.1694 10.8642 82.1694 15.5534C82.1694 20.2035 78.7662 23.4859 74.4686 23.4859ZM70.3849 15.5534C70.3849 18.3279 72.1739 20.223 74.488 20.223C76.8604 20.223 78.5523 18.2301 78.5523 15.5534C78.5523 12.9548 76.9189 10.8642 74.488 10.8642C72.135 10.8642 70.3849 12.8376 70.3849 15.5534Z" fill="black"/>
<path d="M88.0416 11.1182H83.7246V7.91394H95.8007V11.1182H91.4837V23.1538H88.0416V11.1182Z" fill="black"/>
<path d="M98.6309 23.1538V7.91394H102.073V23.1538H98.6309Z" fill="black"/>
<path d="M113.297 23.4859C108.727 23.4859 105.363 20.3208 105.363 15.4557C105.363 10.2585 109.213 7.60132 113.142 7.60132C116.564 7.60132 119.131 9.63331 120.201 12.5054L116.992 13.795C116.311 12.1928 115.125 10.8642 113.083 10.8642C110.652 10.8642 108.961 12.7399 108.961 15.6315C108.961 19.0899 111.372 20.223 113.297 20.223C115.086 20.223 116.7 19.2266 117.478 16.8821L120.687 17.9762C119.364 22.0206 116.409 23.4859 113.297 23.4859Z" fill="black"/>
</svg>
